<svg xmlns="http://www.w3.org/2000/svg" version="1.1" width="80" height="80" viewBox="0 0 80 80">
<title>Instagram</title>
<path d="M40.291 24.010c5.117 0 5.698 0 7.733 0.116 1.86 0.058 2.849 0.407 3.547 0.639 0.872 0.349 1.512 0.756 2.209 1.453s1.105 1.279 1.453 2.209c0.232 0.698 0.581 1.686 0.639 3.547 0.116 2.035 0.116 2.616 0.116 7.733s0 5.698-0.116 7.733c-0.058 1.86-0.407 2.849-0.639 3.547-0.349 0.872-0.756 1.512-1.453 2.209s-1.279 1.105-2.209 1.453c-0.698 0.232-1.686 0.581-3.547 0.639-2.035 0.116-2.616 0.116-7.733 0.116s-5.698 0-7.733-0.116c-1.86-0.058-2.849-0.407-3.547-0.639-0.872-0.349-1.512-0.756-2.209-1.453s-1.105-1.279-1.453-2.209c-0.232-0.698-0.581-1.686-0.639-3.547-0.116-2.035-0.116-2.616-0.116-7.733s0-5.698 0.116-7.733c0.058-1.86 0.407-2.849 0.639-3.547 0.349-0.872 0.756-1.512 1.453-2.209s1.279-1.105 2.209-1.453c0.698-0.232 1.686-0.581 3.547-0.639 2.035-0.058 2.616-0.116 7.733-0.116zM40.291 20.58c-5.175 0-5.814 0-7.85 0.116s-3.43 0.407-4.651 0.872c-1.279 0.465-2.326 1.163-3.372 2.209s-1.744 2.151-2.209 3.372c-0.465 1.221-0.814 2.616-0.872 4.651-0.116 2.035-0.116 2.675-0.116 7.907s0 5.814 0.116 7.85c0.116 2.035 0.407 3.43 0.872 4.651 0.465 1.279 1.163 2.326 2.209 3.372s2.151 1.744 3.372 2.209c1.221 0.465 2.616 0.814 4.651 0.872 2.035 0.116 2.675 0.116 7.85 0.116s5.814 0 7.85-0.116c2.035-0.116 3.43-0.407 4.651-0.872 1.279-0.465 2.326-1.163 3.372-2.209s1.744-2.151 2.209-3.372c0.465-1.221 0.814-2.616 0.872-4.651 0.116-2.035 0.116-2.675 0.116-7.85s0-5.814-0.116-7.85c-0.116-2.035-0.407-3.43-0.872-4.651-0.465-1.279-1.105-2.326-2.209-3.372-1.046-1.046-2.151-1.744-3.372-2.209s-2.616-0.814-4.651-0.872c-2.035-0.116-2.675-0.175-7.85-0.175 0 0 0 0 0 0zM40.291 29.883c-5.407 0-9.826 4.419-9.826 9.826s4.419 9.826 9.826 9.826 9.826-4.419 9.826-9.826-4.419-9.826-9.826-9.826zM40.291 46.047c-3.489 0-6.338-2.849-6.338-6.338s2.849-6.338 6.338-6.338 6.338 2.849 6.338 6.338-2.849 6.338-6.338 6.338zM52.792 29.476c0 1.279-1.046 2.268-2.268 2.268s-2.268-1.046-2.268-2.268 0.988-2.268 2.209-2.268 2.326 1.046 2.326 2.268z" fill="#999" class="icon-path-Instagram"></path>
</svg>