<svg xmlns="http://www.w3.org/2000/svg" version="1.1" width="80" height="80" viewBox="0 0 80 80"><path d="M 80 0 a 0 0 0 0 1 0 0 v 80 a 0 0 0 0 1 0 0 h -80 a 0 0 0 0 1 0 0 v -80 a 0 0 0 0 1 0 0 h 80 z" fill="rgba(0, 0, 0, 0)" class="background-path-Twitter"></path>
<g id="icomoon-ignore">
</g>
<path fill="#333" d="M43.969 36.923l13.507-15.582h-3.2l-11.728 13.53-9.366-13.53h-10.804l14.165 20.46-14.165 16.34h3.2l12.385-14.288 9.892 14.288h10.804l-14.69-21.218zM39.585 41.981l-12.854-18.249h4.916l22.629 32.126h-4.916l-9.775-13.878z" class="icon-path-Twitter"></path>
</svg>