<svg xmlns="http://www.w3.org/2000/svg" version="1.1" width="80" height="80" viewBox="0 0 80 80"><path d="M 80 0 a 0 0 0 0 1 0 0 v 80 a 0 0 0 0 1 0 0 h -80 a 0 0 0 0 1 0 0 v -80 a 0 0 0 0 1 0 0 h 80 z" fill="rgba(0, 0, 0, 0)" class="background-path-TikTok"></path>
<title>TikTok</title>
<path d="M56.397 36.63c-0.011 0-0.024 0-0.038 0-3.36 0-6.468-1.077-8.998-2.906l0.045 0.032v13.087c-0.003 6.571-5.331 11.898-11.903 11.898-6.574 0-11.903-5.328-11.903-11.903s5.328-11.903 11.903-11.903c0.577 0 1.144 0.040 1.697 0.12l-0.064-0.007v6.581c-0.49-0.16-1.054-0.252-1.639-0.252-3.018 0-5.464 2.446-5.464 5.464s2.446 5.464 5.464 5.464c3.018 0 5.464-2.446 5.464-5.464 0 0 0 0 0 0v0-25.583h6.443c0 0.022 0 0.047 0 0.073 0 0.548 0.049 1.084 0.144 1.605l-0.009-0.055c0.476 2.479 1.919 4.552 3.914 5.853l0.035 0.022c1.38 0.924 3.077 1.475 4.904 1.475 0 0 0.002 0 0.002 0v0z" fill="#333" class="icon-path-TikTok"></path>
</svg>