<svg xmlns="http://www.w3.org/2000/svg" version="1.1" width="80" height="80" viewBox="0 0 80 80"><path d="M 80 0 a 0 0 0 0 1 0 0 v 80 a 0 0 0 0 1 0 0 h -80 a 0 0 0 0 1 0 0 v -80 a 0 0 0 0 1 0 0 h 80 z" fill="rgba(0, 0, 0, 0)" class="background-path-Youtube"></path>
<title>YouTube</title>
<path d="M60.042 31.82c0 0-0.4-2.819-1.629-4.058-1.558-1.629-3.299-1.637-4.098-1.733-5.719-0.415-14.307-0.415-14.307-0.415h-0.015c0 0-8.588 0-14.307 0.415-0.799 0.096-2.54 0.104-4.098 1.733-1.231 1.238-1.622 4.058-1.622 4.058s-0.408 3.308-0.408 6.622v3.099c0 3.307 0.408 6.622 0.408 6.622s0.4 2.819 1.622 4.058c1.558 1.629 3.603 1.574 4.513 1.75 3.276 0.312 13.907 0.408 13.907 0.408s8.595-0.015 14.315-0.423c0.799-0.096 2.541-0.104 4.098-1.733 1.229-1.238 1.629-4.058 1.629-4.058s0.408-3.307 0.408-6.622v-3.099c-0.008-3.308-0.415-6.622-0.415-6.622zM35.775 45.304v-11.495l11.048 5.768-11.048 5.727z" fill="#333" class="icon-path-Youtube"></path>
</svg>