<svg xmlns="http://www.w3.org/2000/svg" version="1.1" width="80" height="80" viewBox="0 0 80 80"><path d="M 80 0 a 0 0 0 0 1 0 0 v 80 a 0 0 0 0 1 0 0 h -80 a 0 0 0 0 1 0 0 v -80 a 0 0 0 0 1 0 0 h 80 z" fill="rgba(0, 0, 0, 0)" class="background-path-WhatsApp"></path>
<title>WhatsApp</title>
<path fill="#333" d="M56.925 22.975c-4.49-4.496-10.461-6.973-16.824-6.975-13.111 0-23.781 10.669-23.786 23.783-0.002 4.192 1.094 8.284 3.175 11.891l-3.375 12.326 12.609-3.307c3.474 1.896 7.386 2.893 11.366 2.895h0.010c13.109 0 23.78-10.67 23.784-23.784 0.002-6.356-2.469-12.331-6.96-16.827v-0.001zM40.1 59.571h-0.008c-3.547-0.001-7.026-0.955-10.062-2.755l-0.722-0.429-7.483 1.963 1.997-7.296-0.47-0.748c-1.979-3.148-3.024-6.786-3.022-10.521 0.005-10.899 8.873-19.768 19.778-19.768 5.28 0.002 10.244 2.061 13.976 5.798 3.733 3.736 5.787 8.704 5.784 13.986-0.005 10.901-8.873 19.769-19.769 19.769v0.001zM50.944 44.765c-0.594-0.298-3.516-1.735-4.061-1.933s-0.941-0.298-1.337 0.298c-0.396 0.595-1.535 1.934-1.882 2.33-0.347 0.397-0.693 0.446-1.288 0.148s-2.509-0.925-4.78-2.949c-1.767-1.576-2.96-3.522-3.306-4.117s-0.036-0.917 0.26-1.212c0.267-0.267 0.594-0.695 0.892-1.041s0.396-0.595 0.594-0.991c0.198-0.397 0.099-0.744-0.049-1.041s-1.337-3.223-1.833-4.412c-0.482-1.159-0.973-1.001-1.337-1.021-0.347-0.017-0.742-0.021-1.139-0.021s-1.040 0.148-1.585 0.744c-0.545 0.595-2.080 2.033-2.080 4.958s2.129 5.751 2.427 6.148c0.298 0.397 4.191 6.399 10.152 8.974 1.418 0.612 2.525 0.978 3.388 1.252 1.423 0.453 2.719 0.389 3.743 0.236 1.142-0.171 3.516-1.438 4.011-2.826s0.495-2.579 0.347-2.826c-0.148-0.248-0.545-0.397-1.139-0.695l0.001-0.002z" class="icon-path-WhatsApp"></path>
</svg>