<svg xmlns="http://www.w3.org/2000/svg" version="1.1" width="80" height="80" viewBox="0 0 80 80">
<title>Messenger</title>
<path fill="#999" d="M40.058 13.751c-14.822 0-26.308 10.832-26.308 25.463 0 7.653 3.145 14.266 8.263 18.834 0.884 0.795 0.702 1.255 0.852 6.163 0.040 1.133 0.968 2.036 2.107 2.036 0.305 0 0.595-0.065 0.857-0.182l-0.014 0.005c5.6-2.466 5.672-2.661 6.622-2.403 16.225 4.466 33.811-5.918 33.811-24.454 0-14.631-11.369-25.463-26.191-25.463zM55.854 33.346l-7.726 12.233c-0.713 1.111-1.942 1.837-3.34 1.837-0.892 0-1.714-0.295-2.376-0.793l0.010 0.007-6.147-4.601c-0.262-0.198-0.593-0.318-0.953-0.318s-0.691 0.119-0.956 0.32l0.004-0.003-8.295 6.291c-1.107 0.839-2.557-0.487-1.811-1.658l7.726-12.233c0.712-1.111 1.941-1.837 3.34-1.837 0.892 0 1.715 0.295 2.376 0.794l-0.010-0.007 6.145 4.6c0.262 0.198 0.593 0.318 0.953 0.318s0.691-0.119 0.956-0.32l-0.004 0.003 8.299-6.285c1.105-0.845 2.555 0.481 1.809 1.653z" class="icon-path-Messenger"></path>
</svg>