<svg xmlns="http://www.w3.org/2000/svg" version="1.1" width="80" height="80" viewBox="0 0 80 80"><path d="M 80 0 a 0 0 0 0 1 0 0 v 80 a 0 0 0 0 1 0 0 h -80 a 0 0 0 0 1 0 0 v -80 a 0 0 0 0 1 0 0 h 80 z" fill="rgba(0, 0, 0, 0)" class="background-path-Facebook"></path>
<title>Facebook</title>
<path d="M44.278 26.336h6.577v-7.854h-6.577c-5.044 0-9.194 4.086-9.194 9.194v3.959h-5.236v7.854h5.236v20.943h7.854v-21.007h6.577l1.341-7.854h-7.917v-3.959c0-0.702 0.575-1.277 1.341-1.277z" fill="#333" class="icon-path-Facebook"></path>
</svg>