<svg xmlns="http://www.w3.org/2000/svg" version="1.1" width="80" height="80" viewBox="0 0 80 80"><path d="M 80 0 a 0 0 0 0 1 0 0 v 80 a 0 0 0 0 1 0 0 h -80 a 0 0 0 0 1 0 0 v -80 a 0 0 0 0 1 0 0 h 80 z" fill="rgba(0, 0, 0, 0)" class="background-path-Reddit"></path>
<title>Reddit</title>
<path d="M59.007 38.939c0 1.655-0.933 3.076-2.313 3.776 0.169 0.658 0.255 1.337 0.255 2.036 0 6.703-7.573 12.134-16.907 12.134-9.313 0-16.885-5.431-16.885-12.134 0-0.679 0.085-1.357 0.234-1.995-1.422-0.701-2.397-2.142-2.397-3.819 0-2.332 1.888-4.221 4.221-4.221 1.21 0 2.291 0.509 3.076 1.337 2.864-1.995 6.681-3.288 10.924-3.436l2.46-11.052c0.085-0.381 0.489-0.636 0.87-0.552l7.828 1.718c0.509-1.019 1.59-1.739 2.822-1.739 1.761 0 3.183 1.422 3.183 3.161 0 1.761-1.422 3.183-3.183 3.183-1.739 0-3.161-1.422-3.161-3.161l-7.086-1.571-2.207 10.013c4.264 0.127 8.125 1.4 11.009 3.395 0.764-0.807 1.846-1.294 3.034-1.294 2.332 0 4.221 1.888 4.221 4.221zM29.859 43.161c0 1.761 1.422 3.183 3.161 3.183 1.761 0 3.183-1.422 3.183-3.183 0-1.739-1.422-3.161-3.183-3.161-1.739 0-3.161 1.422-3.161 3.161zM47.043 50.691c0.318-0.318 0.318-0.785 0-1.103-0.297-0.297-0.785-0.297-1.082 0-1.273 1.294-4.009 1.739-5.961 1.739s-4.688-0.446-5.961-1.739c-0.297-0.297-0.785-0.297-1.082 0-0.318 0.297-0.318 0.785 0 1.103 2.015 2.015 5.898 2.164 7.043 2.164s5.028-0.149 7.043-2.164zM46.98 46.344c1.739 0 3.161-1.422 3.161-3.183 0-1.739-1.422-3.161-3.161-3.161-1.761 0-3.183 1.422-3.183 3.161 0 1.761 1.422 3.183 3.183 3.183z" fill="#333" class="icon-path-Reddit"></path>
</svg>